<svg xmlns="http://www.w3.org/2000/svg" width="1354.674" height="349.448" viewBox="0 0 1354.674 349.448">
  <path id="Union_5" data-name="Union 5" d="M149.456,419.672q0-2.024,4.416-5.7,10.3-7.359,63.3-78.752l17.663-23.552q54.833-78.015,68.449-93.839,24.288-27.6,53.728-57.408l10.3-10.672q-7.727,4.049-36.064,27.968t-52.992,46l-24.287,22.08q-72.128,64.032-94.024,83.536t-69,52.992q-51.151,36.432-63.3,36.432-1.472,0-1.472-1.84v-.736q.737-3.313,11.04-11.408,24.656-20.976,57.408-64.216t68.448-92.184q35.7-48.943,61.457-75.808-16.56-2.943-16.56-20.24,0-11.039,15.639-26.128t15.64-29.44q0-6.623-11.776-11.776-7.729-2.944-18.769-2.944-37.535,0-75.623,16.375t-64.952,39.56q-26.864,23.184-43.976,48.576T7.04,230.7q0,12.879,9.016,20.424t25.576,7.544q16.559,0,47.471-14.719t39.744-26.864l3.68,2.576q-6.256,9.569-38.456,26.68T40.16,263.456q-40.48,0-40.48-30.912,0-15.823,11.225-36.432T42.552,154.9a309.06,309.06,0,0,1,46.184-38.088,241.127,241.127,0,0,1,58.327-28.52,199.192,199.192,0,0,1,64.217-11.04q16.192,0,26.128,7.176t9.936,16.928a34.412,34.412,0,0,1-5.152,18.216,88.581,88.581,0,0,1-11.039,14.72q-16.56,16.192-16.56,22.816,0,11.407,13.248,12.144,44.9-45.631,78.384-45.632,9.567,0,9.568,5.52,0,10.673-26.312,25.944t-49.864,17.848q-18.4,21.712-83.536,112.608-20.239,27.968-49.312,60.72T49.36,401.088q14.353-1.471,82.433-55.936,8.1-6.623,15.271-12.328t62.744-55.015Q332.72,168.512,343.76,160.416t31.1-20.424q20.056-12.328,22.631-12.328t2.577.736l-2.945,4.415q-9.567,4.416-36.064,36.8t-48.208,62.56l-21.712,29.808q-33.487,48.944-50.783,69.552-25.761,30.912-45.265,51.521l-5.52,6.256L461.152,160.048q54.832-44.16,106.72-44.16,21.344,0,33.856,11.96t12.512,35.7q0,23.736-23.368,49.312a200.368,200.368,0,0,1-54.1,41.952q-30.729,16.376-53.176,16.376-26.5,0-26.5-25.025,0-17.3,16.192-35.144t43.056-24.472l1.1,3.68q-25.392,7.727-40.112,23.552t-14.72,31.279q0,21.345,19.5,21.344T530.7,248.552a217.427,217.427,0,0,0,51.152-43.424q22.079-25.576,22.08-45.08t-10.488-29.072q-10.488-9.569-30.544-9.568T514.7,133.92a223.287,223.287,0,0,0-52.439,32.752q-43.793,36.064-135.24,114.448t-118.68,100.1q-32.751,26.128-47.839,35.7l-4.416,2.576q-2.944,2.207-4.783,2.208T149.456,419.672Zm95.312-252.264q20.609-4.784,42.5-17.112t21.9-18.952q0-2.576-4.416-2.576Q279.36,129.136,244.768,167.408ZM817.376,388.576q0-11.407,11.776-21.528A161.89,161.89,0,0,1,852.52,350.12q11.592-6.808,11.592-10.488,0-1.1-2.576-1.1l-20.608,1.841a47.529,47.529,0,0,1-10.671-1.1q-16.327,11.564-34.224,22.815h0q-43.424,30.544-74.336,30.544-22.079,0-22.08-18.4a26.155,26.155,0,0,1,1.01-7.116q-42.78,26.99-61.362,26.988-9.936,0-9.936-9.2,0-9.936,11.776-24.656-43.424,32.015-68.08,32.384-8.832,0-8.832-10.672a34.873,34.873,0,0,1,3.107-13.964Q524.8,395.2,506.784,395.2q-9.567,0-9.568-9.2,0-6.256,7.912-14.9a151.054,151.054,0,0,1,17.113-16.008q25.392-19.136,25.392-25.392,0-1.84-4.048-1.84-13.616,0-40.48,14.72t-59.616,47.84q-2.207,2.207-8.28,2.208t-6.071-3.312q0-1.1,25.392-27.232t25.392-33.856q0-1.84-2.391-1.84t-9.936,4.784q-7.545,4.784-23.184,15.272-13.613,9.128-23.741,15.609l0,.031-16.928,10.672q-11.776,7.727-23,7.728t-14.9-11.408Q336.4,395.2,309.9,395.2q-15.825,0-15.824-15.088,0-19.136,22.448-39.928t54.1-20.792q19.5,0,19.5,12.88,0,11.04-13.616,26.5v2.944q0,12.145,10.671,12.145,6.624,0,14.72-5.521L419.11,357.1q5.035-3.4,12.6-8.636,9.567-6.623,15.824-10.856t13.616-9.016q14.352-8.832,22.08-8.832t7.728,8.28q0,8.28-11.776,24.1,41.951-29.072,67.343-29.072,9.936,0,9.936,8.464T549.1,349.016a92.677,92.677,0,0,1-16.193,15.639Q509.361,381.585,509.36,386q0,2.576,4.232,2.576t14.168-4.416a168.294,168.294,0,0,0,17.664-9.015q7.727-4.6,18.584-11.408,6-3.766,8.913-5.561A102.227,102.227,0,0,1,588.664,341.1q24.471-21.712,64.584-21.712,13.616,0,23.184,5.52a55.982,55.982,0,0,0,4.416-4.047l153.823-149.04q2.209-2.209,8.833-2.209t6.624,4.048a4.65,4.65,0,0,1-1.656,3.128q-1.656,1.655-10.857,9.751t-17.848,16.008q-8.648,7.912-24.1,22.264T765.12,253.888q-15.088,14.719-35.7,35.144t-32.568,32.752q-11.96,12.328-19.872,20.056t-13.432,13.432q-5.52,5.7-11.776,12.327a92.016,92.016,0,0,0-9.569,11.592Q638.9,384.16,638.9,387.1t2.577,2.944q17.011,0,62.693-31.06,6.619-11.26,22.866-23.037,27.416-19.872,56.488-19.872,9.2,0,9.2,5.52,0,8.833-20.424,21.16t-53.545,18.216q-7.727,8.833-7.727,15.089,0,10.672,14.72,10.672,26.857,0,66.27-27.827l-.03-.142,34.961-24.288q.367-6.992,8.832-13.983t14.352-6.992q5.887,0,5.888,3.128t-6.992,7.912q-6.992,4.784-6.992,6.992t2.944,2.209l17.3-2.209a8.817,8.817,0,0,1,6.992,2.944,10.27,10.27,0,0,1,2.576,6.992q0,8.1-11.407,17.664T837.8,377.168q-11.224,8.463-11.224,13.615,0,2.944,4.784,2.945,15.825,0,48.208-18.4a339.891,339.891,0,0,0,29.808-18.768l.736,5.52q-12.513,8.1-27.968,16.56-8.832,5.52-25.76,12.7t-27.968,7.176Q817.375,398.512,817.376,388.576Zm-489.809-43.24q-20.975,20.424-20.975,35.879,0,7.729,6.992,7.728,26.5,0,51.52-26.5v-.368q0-17.663,16.928-33.12-1.1-4.047-6.256-4.048Q348.544,324.912,327.568,345.336ZM625.28,331.72a108.2,108.2,0,0,0-26.129,17.112,148.259,148.259,0,0,0-18.4,19.5q-7.36,9.569-7.36,13.984t4.048,4.416q12.88,0,35.7-13.432a307.434,307.434,0,0,0,39.56-27.232q16.744-13.8,16.744-16.192t-5.336-3.864a56.9,56.9,0,0,0-14.536-1.472Q640.368,324.544,625.28,331.72Zm128.064.736a160.676,160.676,0,0,0-30.544,24.1q24.656-4.049,42.5-14.9t17.848-17.48q0-2.944-5.888-2.945T753.344,332.456ZM992.955,394,948.166,282.6l-3.254,34.357q-2.2,23.256-2.2,36.846,0,30.243,15.121,31.1V389.5H914.575v-4.594q6.7-1.532,10.623-8.566t8.086-25.074a292.358,292.358,0,0,0,6.078-38.52l2.392-25.457q.1-1.818.1-3.924,0-6.795-2.68-9.14t-9.953-2.536V267.1h31.374l41,101.2,23.521-55.548q13.3-31.392,17.513-45.651h34.166v4.594q-8.325.192-11.627,2.776t-3.3,9.474q0,.957.1,2.2l7.274,76.371q1.339,14.068,4.45,18.087t12.586,4.307V389.5h-47.093v-4.594q7.178-.192,10.145-2.872t2.967-10.431a29.5,29.5,0,0,0-.192-3.254l-7.511-75.99q-16.313,29-23.3,45.365L997.262,394Zm327.3-1.723V361.267q-16.46,21.055-24.165,26.032t-15.169,4.977q-12.537,0-20.193-11.341a45.347,45.347,0,0,1-7.656-25.984q0-20.1,14.834-37.946t32.827-17.849a36.335,36.335,0,0,1,8.9,1.244,65.779,65.779,0,0,1,10.623,3.829V278.484q0-8.135-6.221-8.135a23.077,23.077,0,0,0-8.23,2.011V267.1l33.209-12.632v3.923q-4.115,1.631-4.115,6.519V372.082q0,7.849,6.84,7.848a18.9,18.9,0,0,0,7.611-2.105v4.881l-24.566,9.571Zm-45.315-73.74q-7.417,12.585-7.417,28.759,0,13.495,6.316,22.921t15.5,9.427q13.017,0,22.491-17.035t9.474-34.07a52.7,52.7,0,0,0-1.148-11.58,53.968,53.968,0,0,0-13.111-8.278,31.9,31.9,0,0,0-12.537-2.727Q1282.361,305.951,1274.945,318.536Zm-63.4,70.964v-4.594q4.019-.192,4.019-4.684V321.154a11.83,11.83,0,0,0-2.584-7.981,8.417,8.417,0,0,0-6.7-3.01q-12.058,0-22.442,17.061t-10.383,39.14q0,11.182,3.445,14.766t12.25,3.776V389.5H1145.7v-4.594q7.7-.192,11.076-3.35t3.375-11.58v-48.9q0-9.474-6.275-9.474-2.281,0-8.176,2.392V309.2l24.8-10.145h4.006v31.556q13.782-18.415,22.682-24.986t16.844-6.57q16.174,0,16.174,20.768v50.148q0,8.517,3.494,11.628t11.149,3.3V389.5Zm-118.385,0v-4.594q7.37-.192,11.006-3.207t3.637-11.723V317.627q0-6.029-6.891-6.029a14.216,14.216,0,0,0-5.455,1.244,16.311,16.311,0,0,1-2.3.861v-4.881l24.581-9.666h4.7v70.82q0,8.517,3.542,11.628t11.1,3.3V389.5ZM892.333,231.4,830.87,221.12l61.463-5.762L900.123,104l7.96,111.358,73.755,5.762L908.083,231.4,900.123,349Zm216.328,43.592a9.185,9.185,0,0,1,.1-13.063,8.8,8.8,0,0,1,6.124-2.584,9.152,9.152,0,0,1,9.379,9.187,8.749,8.749,0,0,1-2.679,6.412,9.185,9.185,0,0,1-12.92.048Z" transform="translate(2.82 -74.748)" fill="#fff" stroke="#fff" stroke-linejoin="round" stroke-width="5"/>
</svg>
