<svg xmlns="http://www.w3.org/2000/svg" width="619.56" height="509.196" viewBox="0 0 619.56 509.196">
  <path id="Union_6" data-name="Union 6" d="M149.456,502.172q0-2.024,4.416-5.7,10.3-7.36,63.3-78.752l17.663-23.552q54.833-78.016,68.449-93.84,24.288-27.6,53.728-57.407l10.3-10.672q-7.727,4.047-36.064,27.967t-52.992,46l-24.287,22.08q-72.128,64.032-94.024,83.536t-69,52.992q-51.151,36.431-63.3,36.432-1.472,0-1.472-1.841v-.736q.737-3.312,11.04-11.408,24.656-20.976,57.408-64.216t68.448-92.184q35.7-48.944,61.457-75.808-16.56-2.944-16.56-20.24,0-11.04,15.639-26.128t15.64-29.44q0-6.624-11.776-11.777-7.729-2.943-18.769-2.944-37.535,0-75.623,16.376T68.128,220.468q-26.864,23.185-43.976,48.577T7.04,313.2q0,12.88,9.016,20.425t25.576,7.544q16.559,0,47.471-14.72t39.744-26.863l3.68,2.576q-6.256,9.567-38.456,26.68T40.16,345.956q-40.48,0-40.48-30.912,0-15.825,11.225-36.432T42.552,237.4a309.115,309.115,0,0,1,46.184-38.088,241.128,241.128,0,0,1,58.327-28.52,199.215,199.215,0,0,1,64.217-11.039q16.192,0,26.128,7.176t9.936,16.928a34.415,34.415,0,0,1-5.152,18.216,88.62,88.62,0,0,1-11.039,14.72q-16.56,16.192-16.56,22.816,0,11.407,13.248,12.144,44.9-45.631,78.384-45.632,9.567,0,9.568,5.52,0,10.672-26.312,25.944t-49.864,17.848q-18.4,21.712-83.536,112.608Q135.841,396,106.768,428.756T49.36,483.588q14.353-1.471,82.433-55.936,8.1-6.624,15.271-12.328t62.744-55.016Q332.72,251.012,343.76,242.916t31.1-20.425q20.056-12.328,22.631-12.327t2.577.735l-2.945,4.416q-9.567,4.416-36.064,36.8t-48.208,62.56l-21.712,29.808q-33.487,48.944-50.783,69.552-25.761,30.912-45.265,51.52l-5.52,6.257L461.152,242.548q54.832-44.16,106.72-44.16,21.344,0,33.856,11.96t12.512,35.7q0,23.736-23.368,49.312a200.371,200.371,0,0,1-54.1,41.953q-30.729,16.375-53.176,16.375-26.5,0-26.5-25.024,0-17.3,16.192-35.144t43.056-24.472l1.1,3.68q-25.392,7.727-40.112,23.552t-14.72,31.28q0,21.344,19.5,21.344T530.7,331.052a217.427,217.427,0,0,0,51.152-43.424q22.079-25.577,22.08-45.08t-10.488-29.072q-10.488-9.569-30.544-9.569T514.7,216.42a223.257,223.257,0,0,0-52.439,32.752q-43.793,36.064-135.24,114.448t-118.68,100.1q-32.751,26.128-47.839,35.7l-4.416,2.576q-2.944,2.209-4.783,2.209T149.456,502.172Zm95.312-252.264q20.609-4.784,42.5-17.113t21.9-18.952q0-2.576-4.416-2.576Q279.36,211.636,244.768,249.908ZM429.012,127.4l-61.463-10.278,61.463-5.763L436.8,0l7.959,111.358,73.756,5.763L444.761,127.4,436.8,245Z" transform="translate(2.82 2.5)" fill="#fff" stroke="#fff" stroke-linejoin="round" stroke-width="5"/>
</svg>
